<?xml version="1.0" encoding="iso-8859-1"?>
<!-- Uploaded to: SVG Repo, www.svgrepo.com, Generator: SVG Repo Mixer Tools -->
<svg fill="#000000" height="800px" width="800px" version="1.1" id="Layer_1" xmlns="http://www.w3.org/2000/svg" xmlns:xlink="http://www.w3.org/1999/xlink" 
	 viewBox="0 0 511.302 511.302" xml:space="preserve">
<g>
	<g>
		<path d="M288.048,42.102c-0.4,0-0.8,0-1.2,0c-6.4-0.8-12.8-1.6-19.2-2c3.2-18.4,11.2-30,11.2-30.4c0.8-1.2,0.8-2.4,0.4-3.6
			c-0.4-1.2-1.2-2.4-2.4-2.4l-16-3.6c-1.6-0.4-3.6,0.4-4.4,2c-6.4,10.8-8,26-8.4,38c-5.6,0-11.6,0.4-17.2,1.2c-2,0.4-4,0.4-6,0.8
			c-0.4,0-0.8,0-1.2,0c-114.8,15.6-203.6,114.4-203.6,233.6s89.2,218,204,233.6c0.4,0,0.4,0,0.8,0c2,0.4,3.6,0.4,5.6,0.8
			c6.4,0.8,13.2,1.2,20,1.2c0.4,0,0.8,0,0.8,0c0.4,0,0.4,0,0.8,0c1.2,0,2.4,0,3.2,0c8.4,0,16.8-0.4,25.2-1.2h0.4
			c1.6,0,3.6-0.4,5.2-0.8c0.4,0,0.8,0,1.2-0.4c114.8-15.6,204-114.4,204-233.6C492.048,156.502,403.248,57.702,288.048,42.102z
			 M178.048,61.702c-1.6,2.8-3.6,5.2-5.6,6.4c-2,1.2-5.6,1.6-9.2,2c-2.8,0.4-5.6,0.4-8.4,1.6
			C162.448,68.102,170.048,64.502,178.048,61.702z M28.048,275.702c0-87.2,49.2-162.8,121.2-201.2c-4,3.2-5.6,7.6-7.2,12.4
			c-1.2,3.6-2.4,6.8-4.4,8.4c-1.6,1.6-4.8,2.8-8.4,4c-4.4,1.6-9.6,3.2-12.4,7.2c-3.2,4-3.6,8.8-4.4,13.6c-0.4,3.6-0.8,7.2-2.4,9.2
			c-1.2,2-4.4,4-7.6,5.6c-4,2.4-8.4,5.2-10.8,9.6c-2.4,4.4-2,9.2-1.6,14c0,3.6,0.4,7.2-0.8,9.6c-0.8,2.4-3.6,4.4-6.4,6.8
			c-3.6,3.2-7.6,6.4-9.2,11.2c-1.6,4.8-0.4,9.6,0.8,14c0.8,3.6,1.6,7.2,0.8,9.6c-0.4,2.4-2.8,5.2-5.2,8c-2.8,3.6-6.4,7.6-7.2,12.4
			c-0.8,4.8,1.2,9.2,2.8,13.6c1.2,3.6,2.8,6.8,2.4,9.2c0,2.4-2,5.6-4,8.8c-2.4,4-5.2,8.4-5.2,13.6s2.8,9.6,5.2,13.6
			c2,3.2,3.6,6,4,8.8c0.4,2.8-1.2,6-2.4,9.2c-1.6,4.4-3.6,9.2-2.8,14c0.8,4.8,4,8.8,7.2,12.4c2.4,2.8,4.4,5.6,5.2,8
			c0.8,2.4,0,6-0.8,9.6c-1.2,4.8-2,9.6-0.8,14c1.6,4.8,5.6,8,9.2,11.2c2.8,2.4,5.2,4.8,6.4,6.8c1.2,2.4,0.8,6,0.8,9.6
			c-0.4,4.8-0.4,9.6,1.6,14c2.4,4.4,6.8,7.2,10.8,9.6c3.2,2,6,3.6,7.6,5.6c1.6,2.4,2,5.6,2.4,9.2c0.8,4.8,1.2,9.6,4.4,13.6
			c3.2,4,8,5.6,12.4,7.2c3.2,1.2,6.4,2.4,8.4,4c2,2,3.2,5.2,4.4,8.4c1.6,4.4,3.2,9.2,7.2,12.4
			C77.248,438.502,28.048,362.902,28.048,275.702z M154.848,479.702c2.8,0.8,5.6,1.2,8.4,1.6c3.6,0.4,6.8,0.8,9.2,2
			c2,1.2,3.6,3.6,5.6,6.4C170.048,486.902,162.448,483.302,154.848,479.702z M192.048,493.302c-2.4-1.2-4.4-4.4-6.8-7.6
			c-2.4-3.6-4.8-7.2-8.4-9.6c-3.6-2.4-8-2.8-12.4-3.2c-4-0.4-7.6-0.8-10-2.8c-2-1.6-3.2-5.2-4.8-8.8c-1.6-4-3.2-8.4-6-11.6
			c-3.2-3.2-7.2-4.4-11.2-6c-3.6-1.2-7.2-2.4-9.2-4.8c-1.6-2-2-5.6-2.8-9.6c-0.4-4.4-1.2-8.8-3.6-12.8c-2.4-3.6-6.4-6-10-8
			c-3.2-2-6.8-4-8-6.4c-1.2-2.4-1.2-6-0.8-10c0-3.2,0.4-8-1.2-12c-1.6-4-5.2-7.2-8.4-10c-2.8-2.4-5.6-5.2-6.8-7.6
			c-0.8-2.4,0-6,0.8-10c0.8-4.4,2-8.8,0.8-13.2s-4-7.6-6.8-11.2c-2.4-3.2-4.8-6-5.2-8.8c-0.4-2.8,0.8-6,2.4-9.6
			c1.6-4,3.2-8.4,3.2-12.8c-0.4-4.4-2.8-8.4-4.8-12c-2-3.2-4-6.4-4-9.2c0-2.8,2-6,4-9.2c2.4-3.6,4.4-7.6,4.8-12
			c0.4-4.4-1.2-8.8-3.2-12.8c-1.6-3.6-2.8-6.8-2.4-9.6c0.4-2.8,2.8-5.6,5.2-8.8c2.8-3.2,5.6-6.8,6.8-11.2c1.2-4.4,0-8.8-0.8-13.2
			c-0.8-3.6-1.6-7.2-0.8-10c0.8-2.8,3.6-5.2,6.8-7.6c3.2-2.8,6.8-6,8.4-10c1.6-4,1.6-8.8,1.2-13.2c-0.4-4-0.4-7.6,0.8-10
			c1.2-2.4,4.4-4.4,8-6.4c3.6-2.4,7.6-4.4,10-8c2.4-3.6,3.2-8.4,3.6-12.8c0.4-4,1.2-7.6,2.8-9.6c1.6-2,5.2-3.6,9.2-4.8
			c4-1.6,8.4-2.8,11.2-6c3.2-3.2,4.8-7.2,6-11.6c1.2-3.6,2.4-7.2,4.8-8.8c2-1.6,6-2,10-2.4c4.4-0.4,8.8-0.8,12.4-3.2
			c3.6-2.4,6-6,8.4-9.6c2-3.2,4.4-6.4,6.8-7.6c1.2-0.4,2.8-0.8,4.8-0.8c-3.6,2.8-4.8,7.2-6,11.2c-0.8,3.2-2,6-3.6,7.6
			c-1.2,1.6-4.4,2.4-7.2,3.2c-4.4,1.2-9.2,2.8-12,6.8c-2.8,3.6-3.2,8-3.2,12.8c0,3.2-0.4,6.4-1.6,8.4c-1.2,1.6-4,3.2-6.4,4.8
			c-4,2-8,4.4-10.4,8.8c-2,4-1.6,8.4-0.8,12.8c0.4,3.2,0.8,6.4,0,8.4c-0.8,2-3.2,4-5.6,5.6c-3.2,2.8-7.2,5.6-8.8,10
			c-1.6,4.4-0.4,8.8,0.8,12.8c0.8,3.2,1.6,6.4,1.2,8.4s-2.8,4.4-5.2,6.4c-3.2,3.2-6.4,6.4-7.2,10.8c-0.8,4.4,0.8,8.4,2.4,12.8
			c1.2,2.8,2.4,6,2,8.4c-0.4,2-2.4,4.4-4.4,7.2c-2.8,3.2-5.6,7.2-6,11.6c-0.4,4.4,1.6,8.4,3.6,12.4c1.6,2.8,2.8,5.6,2.8,8
			c0,2-2,4.8-3.6,7.6c-2.4,3.6-4.8,7.6-4.8,12c0,4.4,2.8,8.8,4.8,12c1.6,2.8,3.6,5.2,3.6,7.6c0,2-1.6,5.2-2.8,8c-2,4-4,8-3.6,12.4
			c0.4,4.4,3.6,8.4,6,11.6c2,2.4,4,4.8,4.4,7.2c0.4,2-0.8,5.2-2,8.4c-1.6,4-3.2,8.4-2.4,12.8c0.8,4.4,4.4,8,7.2,10.8
			c2,2,4.4,4.4,5.2,6.4c0.4,2-0.4,5.2-1.2,8.4c-1.2,4.4-2.4,8.8-0.8,12.8c1.6,4.4,5.2,7.6,8.8,10c2.4,2,4.8,4,5.6,5.6
			c0.8,2,0.4,5.2,0,8.4c-0.4,4.4-1.2,8.8,0.8,12.8c2,4.4,6.4,6.8,10.4,8.8c2.8,1.6,5.6,3.2,6.4,4.8c1.2,2,1.2,5.2,1.6,8.4
			c0.4,4.4,0.4,9.2,3.2,12.8c2.8,4,7.6,5.2,12,6.8c2.8,0.8,6,2,7.2,3.2c1.6,1.6,2.4,4.8,3.6,7.6c1.2,4.4,2.8,8.4,6,11.2
			C195.248,494.102,193.648,494.102,192.048,493.302z M229.248,499.302c-2.4-3.2-4.8-6.4-8.4-8c-3.6-1.6-7.6-1.6-11.2-1.6
			c-3.6,0-7.2,0-8.8-1.2c-1.6-1.2-2.8-4.4-3.6-7.6c-1.2-3.6-2.4-8-5.6-10.8c-2.8-2.8-6.8-4-10.4-5.2c-3.2-1.2-6.8-2-8-4
			c-1.2-1.6-1.6-4.8-1.6-8c-0.4-4-0.4-8.4-2.8-12c-2-3.6-6-5.6-9.2-7.6c-2.8-1.6-6-3.2-7.2-5.2c-0.8-2-0.4-5.2,0-8.4
			c0.4-4,1.2-8.4-0.8-12.4c-1.6-4-4.8-6.4-8.4-8.8c-2.8-2-5.2-4-6-6.4c-0.8-2,0-5.2,0.8-8.4c1.2-4,2-8.4,1.2-12.4
			c-1.2-4-4-7.2-7.2-10c-2.4-2.4-4.8-4.8-5.2-6.8s0.8-5.2,2-8c1.6-3.6,3.2-8,2.4-12.4c-0.8-4-3.2-7.6-6-10.8c-2-2.4-4-5.2-4.4-7.6
			c-0.4-2,1.2-5.2,2.8-8c2-3.6,4-7.6,3.6-12c-0.4-4.4-2.4-8-4.8-11.2c-1.6-2.8-3.6-5.6-3.6-8c0-2,2-5.2,3.6-8
			c2.4-3.6,4.8-7.2,4.8-11.2c0.4-4.4-2-8.4-3.6-12c-1.6-2.8-3.2-6-2.8-8c0.4-2.4,2.4-4.8,4.4-7.6c2.8-3.2,5.2-6.8,6-10.8
			c0.8-4.4-1.2-8.4-2.4-12.4c-1.2-3.2-2.4-6-2-8s2.8-4.8,5.2-6.8c2.8-2.8,6-6,7.2-10c1.2-4,0-8.8-1.2-12.4c-0.8-3.2-1.6-6.4-0.8-8.4
			c0.8-2,3.6-4.4,6-6.4c3.2-2.4,6.8-5.2,8.4-8.8c1.6-4,1.2-8.4,0.8-12.4c-0.4-3.2-0.8-6.4,0-8.4c1.2-2,4-3.6,7.2-5.2
			c3.6-2,7.2-4,9.2-7.6c2.4-3.6,2.4-8,2.8-12c0-3.2,0.4-6.4,1.6-8c1.6-2,4.8-2.8,8-4c3.6-1.2,7.6-2.4,10.4-5.2s4.4-7.2,5.6-10.8
			c0.8-3.2,2-6.4,3.6-7.6c2-1.2,5.6-1.2,8.8-1.2c3.6,0,8,0,11.2-1.6c3.6-1.6,6-4.8,8.4-8c0.286-0.286,0.565-0.571,0.705-0.857
			c-0.289,1.011-0.305,1.78-0.305,2.857c-0.4,2.8-0.8,5.6-2.4,7.6c-0.8,0.8-3.2,2-5.2,2.8c-4,1.6-8.4,3.6-10.8,8
			c-0.8,1.6,0,5.6,0.8,9.6c0.4,2.8,1.2,5.6,0.4,7.6c-0.4,1.2-2.8,2.8-4.8,4.4c-3.2,2.4-7.2,4.8-8.4,9.2c-1.2,4,0,8,1.2,11.6
			c0.8,2.8,2,5.6,1.6,7.2c-0.4,1.2-2.4,3.2-4.4,4.8c-3.2,2.8-6.4,5.6-7.2,10c-0.8,4,0.8,8,2.4,11.6c1.2,2.4,2.4,5.2,2,6.8
			c-0.4,1.6-2.4,3.6-4,5.2c-2.8,2.8-6,6-6.4,10.4c-0.8,4,1.2,8,3.2,11.2c1.2,2.4,2.8,5.2,2.4,6.8c0,1.6-2,3.6-4,5.6
			c-2.4,2.8-5.6,6.4-6,10.4c-0.4,4,2,8,3.6,11.2c1.2,2.4,2.8,4.8,2.8,6.4c0,1.6-2,4-3.6,6c-2.4,3.2-5.2,6.4-5.2,10.8
			c0,4,2.4,7.6,4.4,11.2c1.6,2.4,3.2,4.8,3.2,6.4c0,1.6-1.6,4-3.2,6c-3.2,3.2-6,6.8-6,11.2c0,4.4,2.4,7.6,4.8,10.8
			c1.6,2,3.2,4.4,3.2,6c0,1.6-1.6,4-3.2,6.4c-2,3.2-4.4,6.8-4.4,11.2c0,4,2.8,7.6,5.2,10.8c1.6,2,3.6,4.4,3.6,6
			c0,1.6-1.6,4.4-2.8,6.4c-2,3.2-4,7.2-3.6,11.2c0.4,4.4,3.2,7.6,6,10.4c1.6,2,3.6,4,4,5.6c0.4,1.6-1.2,4.4-2.4,6.8
			c-1.6,3.6-3.6,7.2-3.2,11.2c0.8,4.4,3.6,7.6,6.4,10.4c2,2,4,4,4,5.2c0.4,1.6-0.8,4.4-2,6.8c-1.6,3.6-3.2,7.6-2.4,11.6
			c0.8,4.4,4.4,7.2,7.2,10c2,1.6,4,3.6,4.4,4.8c0.4,1.6-0.4,4.4-1.6,7.2c-1.2,4-2.8,7.6-1.2,11.6c1.2,4.4,5.2,6.8,8.4,9.2
			c2,1.6,4.4,3.2,4.8,4.4c0.8,1.6,0,4.8-0.4,7.6c-0.8,4-1.6,8,0.4,11.6c2.4,4.4,6.8,6,10.8,8c2,0.8,4.4,2,5.2,2.8
			c1.2,1.6,1.6,4.4,2.4,7.6c0,1.2,0.4,2,0.4,3.2C229.648,500.102,229.648,499.702,229.248,499.302z M240.194,501.848
			c0.1,0.099,0.185,0.185,0.254,0.254C240.358,502.057,240.274,501.967,240.194,501.848z M251.248,153.702c2,3.6,3.6,6.8,3.6,13.6
			c0,6.8-1.6,10-3.6,13.6c-2,4-4.4,8.4-4.4,17.2s2.4,13.2,4.4,17.2c2,3.6,3.6,6.8,3.6,13.6s-1.6,10-3.6,13.6c-2,4-4.4,8.4-4.4,17.2
			s2.4,13.2,4.4,17.2c2,3.6,3.6,6.8,3.6,13.6c0,6.8-1.6,10-3.6,13.6c-2,4-4.4,8.4-4.4,17.2s2.4,13.2,4.4,17.2
			c2,3.6,3.6,6.8,3.6,13.6c0,6.8-1.6,10-3.6,13.6c-2,4-4.4,8.4-4.4,17.2s2.4,13.2,4.4,17.2c2,3.6,3.6,6.8,3.6,13.6
			c0,6.8-1.6,10-3.6,13.6c-2,4-4.4,8.4-4.4,17.2s2.4,13.2,4.4,17.2c2,3.6,3.6,6.8,3.6,13.6c0,6.8-1.6,10-3.6,13.6
			c-1.6,3.2-3.6,7.2-4.4,13.2c-2.375,0-4.748-0.003-6.735-0.39c-0.585-1.067-0.925-3.912-1.265-5.61c-0.8-3.6-1.2-7.6-3.6-10.8
			c-2-2.8-5.6-4-8.8-5.6c-2.8-1.2-6-2.4-6.8-4c-0.4-1.2,0-4,0.4-6.4c0.8-3.6,1.6-8,0-12c-1.6-3.6-4.8-5.6-7.6-8
			c-2.4-1.6-4.8-3.6-5.6-5.2c-0.4-1.2,0.4-4,1.2-6.4c1.2-3.6,2.8-8,1.6-12c-1.2-3.6-4-6.4-6.8-8.8c-2-2-4.4-4-4.8-5.6
			c-0.4-1.6,0.8-4,2-6.4c1.6-3.6,3.2-7.6,2.4-11.6s-3.6-6.8-6.4-9.6c-2-2-4-4-4.4-5.6c-0.4-1.6,1.2-4,2.4-6.4
			c1.6-3.6,3.6-7.2,3.2-11.2c-0.4-4-3.2-7.2-5.6-10c-1.6-2-4-4.4-4-6c0-1.6,1.2-4,2.8-6.4c2-3.2,4-7.2,4-11.2
			c-0.4-4-2.8-7.2-5.2-10.4c-1.6-2-3.6-4.4-3.6-6c0-1.6,1.6-4,3.2-6.4c2-3.2,4.4-6.8,4.4-10.8s-2.4-7.6-4.8-10.4
			c-2.4-3.2-4.4-5.6-4.4-7.2c0-1.6,1.6-4,3.2-6.4c2.4-3.2,4.8-6.4,4.8-10.4s-2.4-7.6-4.4-10.8c-1.6-2.4-3.2-4.8-3.2-6.4s2-4,3.6-6
			c2.4-2.8,5.2-6.4,5.2-10.4c0.4-4-2-8-4-11.2c-1.2-2.4-2.8-4.8-2.8-6.4c0-1.6,2-4,4-6c2.4-2.8,5.2-6,5.6-10c0.4-4-1.6-8-3.2-11.2
			c-1.2-2.4-2.4-4.8-2.4-6.4c0.4-1.6,2.4-4,4.4-6c2.8-2.8,5.6-5.6,6.4-9.6s-0.8-8-2.4-11.6c-1.2-2.4-2.4-5.2-2-6.4
			c0.4-1.6,2.8-3.6,4.8-5.6c2.8-2.4,6-5.2,6.8-8.8c1.2-4-0.4-8-1.6-12c-0.8-2.4-1.6-5.2-1.2-6.4c0.4-1.6,3.2-3.6,5.6-5.2
			c3.2-2,6.4-4.4,7.6-8c1.6-4,0.8-8,0-12c-0.4-2.4-0.8-5.2-0.4-6.4c0.8-1.6,4-2.8,6.8-4c3.2-1.2,6.8-2.8,8.8-5.6
			c2.4-3.2,3.2-7.2,3.6-10.8c0.4-2,0.8-5.6,1.6-6c0.4-0.4,0.8-0.8,0.8-1.2c4.8-0.4,9.6-0.4,14.4-0.4c-0.4,4-2,6.8-3.2,9.6
			c-2,4-4.4,8.4-4.4,17.2s2.4,13.2,4.4,17.2c2,3.6,3.6,6.8,3.6,13.6c0,6.8-1.6,10-3.6,13.6c-2,4-4.4,8.4-4.4,17.2
			C246.848,145.302,249.248,149.702,251.248,153.702z M357.248,71.702c-2.8-1.2-5.6-1.2-8.4-1.6c-3.6-0.4-6.8-0.8-9.2-2
			c-2-1.2-3.6-3.6-5.6-6.4C342.048,64.502,349.648,68.102,357.248,71.702z M262.048,8.502l7.6,1.6c-3.2,5.6-7.6,16-9.6,29.6h-0.4
			c-1.2,0-2,0-3.2,0C256.448,26.902,258.448,16.102,262.048,8.502z M278.048,484.502c-2.4,3.2-3.2,7.2-3.6,10.8
			c-0.4,2-0.8,5.6-1.6,6c-0.4,0.4-0.8,0.8-0.8,1.2c-4.8,0.4-9.6,0.4-14.4,0.4c0.4-4,2-6.8,3.2-9.6c2-4,4.4-8.8,4.4-17.2
			s-3.6-12.8-5.6-16.8c-2-3.6-3.6-6.8-3.6-13.6s1.6-10,3.6-13.6c2-4,4.4-8.8,4.4-17.2c0-8.8-2.4-13.2-4.4-17.2c-2-4-3.6-7.2-3.6-14
			s1.6-10,3.6-13.6c2-4,4.4-8.4,4.4-17.2c0-8.8-2.4-13.2-4.4-17.2c-2-3.6-3.6-6.8-3.6-13.6c0-6.8,1.6-10,3.6-13.6
			c2-4,4.4-8.4,4.4-17.2s-2.4-13.2-4.4-17.2c-2-3.6-3.6-6.8-3.6-13.6c0-6.8,1.6-10,3.6-13.6c2-4,4.4-8.4,4.4-17.2
			s-2.4-13.2-4.4-17.2c-2-3.6-3.6-6.8-3.6-13.6s1.6-10,3.6-13.6c2-4,4.4-8.4,4.4-17.2c0-8.8-2.4-13.2-4.4-17.2
			c-2-3.6-3.6-6.8-3.6-13.6c0-6.8,1.6-10,3.6-13.6c2-4,4.4-8.4,4.4-17.2s-2.4-13.2-4.4-17.2c-2-3.6-3.6-6.8-3.6-13.6
			s1.6-10,3.6-13.6c1.6-3.2,3.6-7.2,4.4-13.2c2.4,0,4.8,0,7.2,0.4c0.4,0.4,0.4,0.8,0.8,1.2c0.8,0.4,1.2,4,1.6,6
			c0.8,3.6,1.2,7.6,3.6,10.8c2,2.8,5.6,4,8.8,5.6c2.8,1.2,6,2.4,6.8,4c0.4,1.2,0,4-0.4,6.4c-0.8,3.6-1.6,8,0,12
			c1.6,3.6,4.8,5.6,7.6,8c2.4,1.6,4.8,3.6,5.6,5.2c0.4,1.2-0.4,4-1.2,6.4c-1.2,3.6-2.8,8-1.6,12c1.2,3.6,4,6.4,6.8,8.8
			c2,2,4.4,4,4.8,5.6c0.4,1.6-0.8,4-2,6.4c-1.6,3.6-3.2,7.6-2.4,11.6c0.8,4,3.6,6.8,6.4,9.6c2,2,4,4,4.4,5.6c0.4,1.6-1.2,4-2.4,6.4
			c-2,2.8-4,6.8-3.2,10.8c0.4,4,3.2,7.2,5.6,10c1.6,2,4,4.4,4,6c0,1.6-1.2,4-2.8,6.4c-2,3.2-4,7.2-4,11.2c0.4,4,2.8,7.2,5.2,10.4
			c1.6,2,3.6,4.4,3.6,6c0,1.6-1.6,4-3.2,6.4c-2,3.2-4.4,6.8-4.4,10.8s2.8,7.6,4.8,10.4c2,2.4,4,4.8,4,6.4c0,1.6-1.6,4-3.2,6.4
			c-2.4,3.2-4.8,6.4-4.8,10.4s2.4,7.6,4.4,10.8c1.6,2.4,3.2,4.8,3.2,6.4c0,1.6-2,4-3.6,6c-2.4,2.8-5.2,6.4-5.2,10.4
			c-0.4,4,2,8,4,11.2c1.2,2.4,2.8,4.8,2.8,6.4c0,1.6-2,4-4,6c-2.4,2.8-5.2,6-5.6,10c-0.4,4,1.6,8,3.2,11.2c1.2,2.4,2.4,4.8,2.4,6.4
			c-0.4,1.6-2.4,4-4.4,5.6c-2.8,2.8-5.6,5.6-6.4,9.6s0.8,8,2.4,11.6c1.2,2.4,2.4,5.2,2,6.4c-0.4,1.6-2.8,3.6-4.8,5.6
			c-2.8,2.4-6,5.2-6.8,8.8c-1.2,4,0.4,8,1.6,12c0.8,2.4,1.6,5.2,1.2,6.4c-0.4,1.6-3.2,3.6-5.6,5.2c-3.2,2-6.4,4.4-7.6,8
			c-1.6,4-0.8,8,0,12c0.4,2.4,0.8,5.2,0.4,6.4c-0.8,1.6-4,2.8-6.8,4C283.648,480.102,280.048,481.702,278.048,484.502z
			 M310.448,487.302c-2,1.2-5.2,0.4-8.8,0.4c-4,0-7.6,1.2-11.2,2.8c-3.6,1.6-6,6-8.4,8.8c-0.286,0.286-0.565,0.571-0.705,0.857
			c0.289-1.011,0.305-1.78,0.305-2.857c0.4-2.8,0.8-5.6,2.4-7.6c0.8-0.8,3.2-2,5.2-2.8c4-1.6,8.4-3.6,10.8-8c2-3.6,1.2-7.6,0.4-11.6
			c-0.4-2.8-1.2-5.6-0.4-7.6c0.4-1.2,2.8-2.8,4.8-4.4c3.2-2.4,7.2-4.8,8.4-9.2c1.2-4,0-8-1.2-11.6c-0.8-2.8-2-5.6-1.6-7.2
			c0.4-1.2,2.4-3.2,4.4-4.8c3.2-2.8,6.4-5.6,7.2-10c0.8-4-0.8-8-2.4-11.6c-1.2-2.4-2.4-5.2-2-6.8c0.4-1.6,2.4-3.6,4-5.2
			c2.8-2.8,6-6,6.4-10.4c0.8-4-1.2-8-3.2-11.2c-1.2-2.4-2.8-5.2-2.4-6.8c0-1.6,2-3.6,4-5.6c2.4-2.8,5.6-6.4,6-10.4
			c0.4-4-2-8-3.6-11.2c-1.2-2.4-2.8-4.8-2.8-6.4c0-1.6,2-4,3.6-6c2.4-3.2,5.2-6.4,5.2-10.8c0-4-2.4-7.6-4.4-11.2
			c-1.6-2.4-3.2-4.8-3.2-6.4c0-1.6,1.6-4,3.2-6c2.8-3.2,5.6-6.8,5.6-10.8s-2.4-7.6-4.8-10.8c-1.6-2-3.2-4.4-3.2-6
			c0-1.6,1.6-4,3.2-6.4c2-3.2,4.4-6.8,4.4-11.2c0-4.4-2.8-7.6-5.2-10.8c-1.6-2-3.6-4.4-3.6-6c0-1.6,1.6-4.4,2.8-6.4
			c2-3.2,4-7.2,3.6-11.2c-0.4-4.4-3.2-7.6-6-10.4c-1.6-2-3.6-4-4-5.6c-0.4-1.6,1.2-4.4,2.4-6.8c1.6-3.6,3.6-7.2,3.2-11.2
			c-0.8-4.4-3.6-7.6-6.4-10.4c-2-2-4-4-4-5.2c-0.4-1.6,0.8-4.4,2-6.8c1.6-3.6,3.2-7.6,2.4-11.6c-0.8-4.4-4.4-7.2-7.2-10
			c-2-1.6-4-3.6-4.4-4.8c-0.4-1.6,0.4-4.4,1.6-7.2c1.2-4,2.8-7.6,1.2-11.6c-1.2-4.4-5.2-6.8-8.4-9.2c-2-1.6-4.4-3.2-4.8-4.4
			c-0.8-1.6,0-4.8,0.4-7.6c0.8-4,1.6-8-0.4-11.6c-2.4-4.4-6.8-6-10.8-8c-2-0.8-4.4-2-5.2-2.8c-1.2-1.6-1.6-4.4-2.4-7.6
			c0-1.2-0.4-2-0.4-3.2c0.4,0.4,0.4,0.8,0.8,1.2c2.4,3.2,4.8,6.4,8.4,8c3.6,1.6,7.6,1.6,11.2,1.6c3.6,0,7.2,0,8.8,1.2
			c1.6,1.2,2.8,4.4,3.6,7.6c1.2,3.6,2.4,8,5.6,10.8c2.8,2.8,6.8,4,10.4,5.2c3.2,1.2,6.8,2,8,4c1.2,1.6,1.6,4.8,1.6,8
			c0.4,4,0.4,8.4,2.8,12c2,3.6,6,5.6,9.2,7.6c2.8,1.6,6,3.2,7.2,5.2c0.8,2,0.4,5.2,0,8.4c-1.2,4.4-1.6,9.2,0,13.2
			c1.6,4,4.8,6.4,8.4,8.8c2.8,2,5.2,4,6,6.4c0.8,2,0,5.2-0.8,8.4c-1.2,4-2,8.4-1.2,12.4c1.2,4,4,7.2,7.2,10c2.4,2.4,4.8,4.8,5.2,6.8
			s-0.8,5.2-2,8c-1.6,3.6-3.2,8-2.4,12.4c0.8,4,3.2,7.6,6,10.8c2,2.4,4,5.2,4.4,7.6c0.4,2-1.2,5.2-2.8,8c-2,3.6-4,7.6-3.6,12
			c0.4,4.4,2.4,8,4.8,11.2c1.6,2.8,3.6,5.6,3.6,8c0,2-2,5.2-3.6,8c-2.4,3.6-4.8,7.2-4.8,11.2c-0.4,4.4,2,8.4,3.6,12
			c1.6,2.8,3.2,6,2.8,8c-0.4,2-2.4,4.8-4.4,7.6c-2.8,3.2-5.2,6.8-6,10.8c-0.8,4.4,1.2,8.4,2.4,12.4c1.2,3.2,2.4,6,2,8
			c-0.4,2-2.8,4.8-5.2,6.8c-2.8,2.8-6,6-7.2,10s0,8.8,1.2,12.4c0.8,3.2,1.6,6.4,0.8,8.4c-0.8,2-3.6,4.4-6,6.4
			c-3.2,2.4-6.8,5.2-8.4,8.8c-1.6,4-1.2,8.4-0.8,12.4c0.4,3.2,0.8,6.4,0,8.4c-1.2,2-4,3.6-7.2,5.2c-3.6,2-7.2,4-9.2,7.6
			c-2.4,3.6-2.4,8-2.8,12c0,3.2-0.4,6.4-1.6,8c-1.6,2-4.8,2.8-8,4c-3.6,1.2-7.6,2.4-10.4,5.2c-2.8,2.8-4.4,6.8-5.6,10.8
			C313.248,483.302,312.048,486.102,310.448,487.302z M334.048,489.702c1.6-2.8,3.6-5.2,5.6-6.4s5.6-1.6,9.2-2
			c2.8-0.4,5.6-0.8,8.4-1.6C349.648,483.302,342.048,486.902,334.048,489.702z M357.648,471.302c-2,1.6-6,2-10,2.4
			c-4.4,0.4-8.8,0.8-12.4,3.2c-3.6,2.4-6,6-8.4,9.6c-2,3.2-4.4,6.4-6.8,7.6c-1.6,0.8-3.6,0.8-6,0.4c0.4,0,0.8-0.4,0.8-0.4
			c3.6-2.8,5.2-6.4,6.4-10.8c0.8-3.2,2-6,3.6-7.6c1.2-1.2,4.4-2.4,7.2-3.2c4.4-1.2,9.2-2.8,12-6.8c2.8-3.6,3.2-8,3.2-12.8
			c0-3.2,0.4-6.4,1.6-8.4c1.2-1.6,4-3.2,6.4-4.8c4-2,8-4.4,10.4-8.8c2-4,1.6-8.4,0.8-12.8c-0.4-3.2-0.8-6.4,0-8.4s3.2-4,5.6-5.6
			c3.2-2.8,7.2-5.6,8.8-10c1.6-4.4,0.4-8.8-0.8-12.8c-0.8-3.2-1.6-6.4-1.2-8.4c0.4-2,2.8-4.4,5.2-6.4c3.2-3.2,6.4-6.4,7.2-10.8
			c0.8-4.4-0.8-8.4-2.4-12.8c-1.2-2.8-2.4-6-2-8.4c0.4-2,2.4-4.4,4.4-7.2c2.8-3.2,5.6-7.2,6-11.6c0.4-4.4-1.6-8.4-3.6-12.4
			c-1.6-2.8-2.8-5.6-2.8-8c0-2,2-4.8,3.6-7.6c2.4-3.6,4.8-7.6,4.8-12c0-4.4-2.8-8.8-4.8-12c-1.6-2.8-3.6-5.2-3.6-7.6
			c0-2,1.6-5.2,2.8-8c2-4,4-8,3.6-12.4c-0.4-4.4-3.6-8.4-6-11.6c-2-2.4-4-4.8-4.4-7.2c-0.4-2,0.8-5.2,2-8.4c1.6-4,3.2-8.4,2.4-12.8
			c-0.8-4.4-4.4-8-7.2-10.8c-2-2.4-4.4-4.4-5.2-6.4c-0.4-2,0.4-5.2,1.2-8.4c1.2-4.4,2.4-8.8,0.8-12.8c-1.6-4.4-5.2-7.6-8.8-10
			c-2.4-2-4.8-4-5.6-5.6c-0.8-2-0.4-5.2,0-8.4c0.4-4.4,1.2-8.8-0.8-12.8c-2-4.4-6.4-6.8-10.4-8.8c-2.8-1.6-5.6-3.2-6.4-4.8
			c-1.2-2-1.2-5.2-1.6-8.4c-0.4-4.4-0.4-9.2-3.2-12.8c-2.8-4-7.6-5.2-12-6.8c-2.8-0.8-6-2-7.2-3.2c-1.6-1.6-2.4-4.8-3.6-7.6
			c-1.2-4.4-2.8-8.4-6-11.2c1.6,0,3.2,0,4.8,0.8c2.4,1.2,4.4,4.4,6.8,7.6c2.4,3.6,4.8,7.2,8.4,9.6c3.6,2.4,8,2.8,12.4,3.2
			c4,0.4,7.6,0.8,10,2.4c2,1.6,3.2,5.2,4.8,8.8c1.6,4,3.2,8.4,6,11.6c3.2,3.2,7.2,4.4,11.2,6c3.6,1.2,7.2,2.4,9.2,4.8
			c1.6,2,2,5.6,2.8,9.6c0.4,4.4,1.2,8.8,3.6,12.8c2.4,3.6,6.4,6,10,8c3.2,2,6.8,4,8,6.4c1.2,2.4,1.2,6,0.8,10c0,4-0.4,8.8,1.2,12.8
			c1.6,4,5.2,7.2,8.4,10c2.8,2.4,5.6,5.2,6.8,7.6c0.8,2.4,0,6-0.8,10c-0.8,4.4-2,8.8-0.8,13.2c1.2,4.4,4,7.6,6.8,11.2
			c2.4,3.2,4.8,6,5.2,8.8c0.4,2.8-0.8,6-2.4,9.6c-1.6,4-3.2,8.4-3.2,12.8c0.4,4.4,2.8,8.4,4.8,12c2,3.2,4,6.4,4,9.2c0,2.8-2,6-4,9.2
			c-2.4,3.6-4.4,7.6-4.8,12c-0.4,4.4,1.2,8.8,3.2,12.8c1.6,3.6,2.8,6.8,2.4,9.6c-0.4,2.8-2.8,5.6-5.2,8.8c-2.8,3.2-5.6,6.8-6.8,11.2
			c-1.2,4.4,0,8.8,0.8,13.2c0.8,3.6,1.6,7.2,0.8,10s-3.6,5.2-6.8,7.6c-3.2,2.8-6.8,6-8.4,10c-1.6,4-1.6,8.8-1.2,13.2
			c0.4,4,0.4,7.6-0.8,10c-1.2,2.4-4.4,4.4-8,6.4c-3.6,2.4-7.6,4.4-10,8c-2.4,3.6-3.2,8.4-3.6,12.8c-0.4,4-1.2,7.6-2.8,9.6
			c-1.6,2-5.2,3.6-9.2,4.8c-4,1.6-8.4,2.8-11.2,6c-3.2,3.2-4.8,7.2-6,11.6C361.248,466.102,360.048,469.702,357.648,471.302z
			 M362.848,476.902c4-3.2,5.6-7.6,7.2-12.4c1.2-3.6,2.4-6.8,4.4-8.4c1.6-1.6,4.8-2.8,8.4-4c4.4-1.6,9.6-3.2,12.4-7.2
			c3.2-4,3.6-8.8,4.4-13.6c0.4-3.6,0.8-7.2,2.4-9.2c1.2-2,4.4-4,7.6-5.6c4-2.4,8.4-5.2,10.8-9.6c2.4-4.4,2-9.2,1.6-14
			c0-3.6-0.4-7.2,0.8-9.6c0.8-2.4,3.6-4.4,6.4-6.8c3.6-3.2,7.6-6.4,9.2-11.2c1.6-4.8,0.4-9.6-0.8-14c-0.8-3.6-1.6-7.2-0.8-9.6
			c0.4-2.4,2.8-5.2,5.2-8c2.8-3.6,6.4-7.6,7.2-12.4s-1.2-9.2-2.8-14c-1.2-3.6-2.8-6.8-2.4-9.2c0-2.4,2-5.6,4-8.8
			c2.4-4,5.2-8.4,5.2-13.6c0-4.8-2.8-9.6-5.2-13.6c-2-3.2-3.6-6-4-8.8c-0.4-2.8,1.2-6,2.4-9.2c1.6-4.4,3.6-9.2,2.8-13.6
			c-0.8-4.8-4-8.8-7.2-12.4c-2.4-2.8-4.4-5.6-5.2-8c-0.8-2.4,0-6,0.8-9.6c1.2-4.8,2-9.6,0.8-14c-1.6-4.8-5.6-8-9.2-11.2
			c-2.8-2.4-5.2-4.8-6.4-6.8c-1.2-2.4-0.8-6-0.8-9.6c0.4-4.8,0.4-9.6-1.6-14c-2.4-4.4-6.8-7.2-10.8-9.6c-3.2-2-6-3.6-7.6-5.6
			c-1.6-2.4-2-5.6-2.4-9.2c-0.8-4.8-1.2-9.6-4.4-13.6c-3.2-4-8-5.6-12.4-7.2c-3.2-1.2-6.4-2.4-8.4-4c-2-2-3.2-5.2-4.4-8.4
			c-1.6-4.4-3.2-9.2-7.2-12.4c72,38.4,121.2,114,121.2,201.2C484.048,362.902,434.848,438.502,362.848,476.902z"/>
	</g>
</g>
</svg>