<svg data-v-423bf9ae="" xmlns="http://www.w3.org/2000/svg" viewBox="0 0 290 90" class="iconLeft"><!----><!----><!----><g data-v-423bf9ae="" id="d857f610-819e-46a4-945e-03104ef895d3" fill="#ffffff" transform="matrix(3.1897924305947214,0,0,3.1897924305947214,100.84189864840009,14.011164875352385)"><path d="M3.93 6.47Q6.72 5.38 6.72 4.42L6.72 4.42Q6.72 3.88 6.03 3.59Q5.35 3.30 4.23 3.07L4.23 3.07Q3.96 3.02 3.61 2.93L3.61 2.93L3.22 2.80Q2.76 5.14 2.49 6.90L2.49 6.90Q3.00 6.85 3.93 6.47L3.93 6.47ZM6.75 2.67Q7.39 2.91 7.74 3.29Q8.08 3.67 8.08 4.12L8.08 4.12Q8.08 4.76 7.38 5.42L7.38 5.42Q6.44 6.30 5.13 6.94Q3.82 7.57 2.52 7.80L2.52 7.80Q2.41 7.83 2.35 7.83L2.35 7.83Q2.00 10.16 1.83 12.08L1.83 12.08Q1.81 12.35 1.44 12.54Q1.08 12.74 0.71 12.74L0.71 12.74Q0.52 12.74 0.39 12.66Q0.27 12.57 0.28 12.40L0.28 12.40Q0.50 10.16 0.85 7.70L0.85 7.70Q0.20 7.42 0.20 6.71L0.20 6.71Q0.20 6.40 0.34 5.99L0.34 5.99Q0.41 5.81 0.67 5.68Q0.94 5.54 1.22 5.52L1.22 5.52Q1.46 4.14 1.90 2.21L1.90 2.21Q1.22 1.72 1.16 0.97L1.16 0.97Q1.15 0.71 1.48 0.51Q1.82 0.31 2.17 0.31L2.17 0.31Q2.65 0.31 2.66 0.66L2.66 0.66Q2.67 0.97 2.90 1.23L2.90 1.23Q2.97 1.22 3.11 1.22L3.11 1.22Q3.56 1.22 3.50 1.53L3.50 1.53L3.46 1.67Q3.88 1.90 4.42 2.06Q4.97 2.23 5.73 2.39L5.73 2.39Q6.51 2.58 6.75 2.67L6.75 2.67ZM12.99 4.77Q13.09 4.61 13.47 4.42Q13.86 4.23 14.15 4.23L14.15 4.23Q14.57 4.23 14.52 4.62L14.52 4.62Q14.52 4.66 14.50 4.75Q14.49 4.83 14.48 4.87L14.48 4.87L14.48 4.90Q14.34 5.84 14.16 7.15Q13.99 8.46 13.89 9.20L13.89 9.20L13.52 11.89Q13.48 12.17 13.13 12.36Q12.77 12.56 12.40 12.56L12.40 12.56Q12.18 12.56 12.05 12.46Q11.91 12.36 11.94 12.18L11.94 12.18Q12.10 10.98 12.43 8.57L12.43 8.57L12.29 8.81Q11.93 9.42 11.75 9.70L11.75 9.70Q11.12 10.68 10.41 11.35Q9.70 12.03 8.79 12.25L8.79 12.25Q8.44 12.33 8.16 12.33L8.16 12.33Q6.85 12.33 6.85 10.54L6.85 10.54Q6.85 9.70 7.11 8.63Q7.38 7.56 7.72 6.62Q8.06 5.68 8.32 5.19L8.32 5.19Q8.41 5.00 8.76 4.85Q9.10 4.70 9.42 4.70L9.42 4.70Q9.62 4.70 9.74 4.77Q9.86 4.84 9.86 4.97L9.86 4.97Q9.86 5.03 9.81 5.14L9.81 5.14Q8.88 7.20 8.60 8.88L8.60 8.88L8.53 9.25Q8.41 9.84 8.41 10.15L8.41 10.15Q8.41 10.30 8.43 10.37L8.43 10.37Q8.60 11.09 8.97 11.05L8.97 11.05Q9.13 11.03 9.34 10.78Q9.56 10.53 9.62 10.47L9.62 10.47Q10.30 9.67 10.86 8.73Q11.42 7.78 12.17 6.36L12.17 6.36Q12.54 5.59 12.99 4.77L12.99 4.77ZM15.68 1.39Q15.71 1.12 16.05 0.93Q16.39 0.74 16.73 0.74L16.73 0.74Q16.94 0.74 17.05 0.83Q17.16 0.91 17.15 1.09L17.15 1.09Q16.74 4.75 16.31 8.40L16.31 8.40L15.89 12.05Q15.86 12.32 15.51 12.52Q15.16 12.71 14.81 12.71L14.81 12.71Q14.34 12.71 14.38 12.35L14.38 12.35L15.04 6.86Q15.48 3.00 15.68 1.39L15.68 1.39ZM21.63 9.03Q21.69 8.79 21.69 8.47L21.69 8.47Q21.69 7.35 20.85 6.29L20.85 6.29Q20.37 5.67 19.84 5.29L19.84 5.29Q19.42 7.91 19.18 9.52L19.18 9.52Q19.07 10.18 18.87 11.49L18.87 11.49Q19.29 11.69 19.64 11.69L19.64 11.69Q20.23 11.69 20.71 11.12L20.71 11.12Q21.06 10.70 21.29 10.15Q21.53 9.60 21.63 9.03L21.63 9.03ZM19.99 3.93Q20.86 4.23 21.56 4.92Q22.26 5.61 22.66 6.53Q23.06 7.45 23.06 8.36L23.06 8.36Q23.06 8.85 22.93 9.31L22.93 9.31Q22.67 10.28 22.13 11.04Q21.59 11.80 20.84 12.24Q20.09 12.68 19.24 12.68L19.24 12.68Q18.97 12.68 18.69 12.64L18.69 12.64Q18.13 16.23 17.68 18.49L17.68 18.49Q17.63 18.76 17.29 18.94Q16.95 19.12 16.60 19.12L16.60 19.12Q16.37 19.12 16.23 19.03Q16.10 18.93 16.14 18.73L16.14 18.73Q16.83 15.26 17.35 12.11L17.35 12.11L17.32 12.10Q17.14 11.97 17.14 11.82L17.14 11.82Q17.14 11.58 17.47 11.37L17.47 11.37Q17.92 8.78 18.48 4.72L18.48 4.72L18.30 4.73L18.14 4.75Q17.91 4.75 17.79 4.66Q17.68 4.58 17.68 4.45L17.68 4.45Q17.68 4.24 17.89 4.05Q18.10 3.85 18.41 3.79L18.41 3.79Q18.66 3.75 18.91 3.75L18.91 3.75Q19.10 3.75 19.40 3.78L19.40 3.78Q19.85 3.72 19.99 3.93L19.99 3.93ZM36.08 1.29Q36.22 1.26 36.29 1.26L36.29 1.26Q36.46 1.26 36.58 1.33Q36.69 1.40 36.69 1.55L36.69 1.55Q36.69 1.95 35.81 2.21L35.81 2.21Q34.78 2.46 34.08 2.60L34.08 2.60Q34.22 3.78 34.29 4.57Q34.36 5.36 34.36 6.17L34.36 6.17Q34.36 6.69 34.31 7.24L34.31 7.24Q34.20 8.54 33.89 9.60Q33.59 10.65 32.84 11.42L32.84 11.42Q32.21 12.08 31.49 12.40Q30.76 12.71 30.00 12.71L30.00 12.71Q28.84 12.71 27.85 12.04Q26.85 11.37 26.43 10.33L26.43 10.33Q26.36 10.18 26.54 10.00Q26.73 9.83 27.02 9.72Q27.31 9.60 27.57 9.60L27.57 9.60Q27.90 9.60 27.99 9.80L27.99 9.80Q28.29 10.54 28.89 11.08Q29.48 11.62 30.25 11.70L30.25 11.70Q30.32 11.72 30.46 11.72L30.46 11.72Q31.93 11.72 32.51 9.27L32.51 9.27Q32.79 8.08 32.79 6.58L32.79 6.58Q32.79 5.05 32.45 2.83L32.45 2.83Q31.93 2.87 31.40 2.87L31.40 2.87Q30.76 2.87 30.13 2.79L30.13 2.79Q29.86 2.74 29.86 2.62L29.86 2.62Q29.86 2.45 30.30 2.21Q30.74 1.96 30.97 1.93L30.97 1.93L31.89 1.85Q33.33 1.74 34.23 1.63Q35.13 1.53 36.08 1.29L36.08 1.29ZM41.65 4.77Q41.75 4.61 42.13 4.42Q42.52 4.23 42.81 4.23L42.81 4.23Q43.23 4.23 43.18 4.62L43.18 4.62Q43.18 4.66 43.16 4.75Q43.15 4.83 43.13 4.87L43.13 4.87L43.13 4.90Q42.99 5.84 42.82 7.15Q42.64 8.46 42.55 9.20L42.55 9.20L42.18 11.89Q42.14 12.17 41.78 12.36Q41.43 12.56 41.06 12.56L41.06 12.56Q40.84 12.56 40.70 12.46Q40.57 12.36 40.60 12.18L40.60 12.18Q40.75 10.98 41.09 8.57L41.09 8.57L40.95 8.81Q40.59 9.42 40.40 9.70L40.40 9.70Q39.77 10.68 39.07 11.35Q38.36 12.03 37.45 12.25L37.45 12.25Q37.10 12.33 36.82 12.33L36.82 12.33Q35.50 12.33 35.50 10.54L35.50 10.54Q35.50 9.70 35.77 8.63Q36.04 7.56 36.38 6.62Q36.72 5.68 36.97 5.19L36.97 5.19Q37.07 5.00 37.41 4.85Q37.76 4.70 38.08 4.70L38.08 4.70Q38.28 4.70 38.39 4.77Q38.51 4.84 38.51 4.97L38.51 4.97Q38.51 5.03 38.47 5.14L38.47 5.14Q37.53 7.20 37.25 8.88L37.25 8.88L37.18 9.25Q37.07 9.84 37.07 10.15L37.07 10.15Q37.07 10.30 37.09 10.37L37.09 10.37Q37.25 11.09 37.63 11.05L37.63 11.05Q37.79 11.03 38.00 10.78Q38.22 10.53 38.28 10.47L38.28 10.47Q38.96 9.67 39.52 8.73Q40.08 7.78 40.82 6.36L40.82 6.36Q41.20 5.59 41.65 4.77L41.65 4.77ZM45.64 1.71Q45.49 1.67 45.33 1.67L45.33 1.67Q45.02 1.67 44.79 1.82L44.79 1.82Q44.48 1.99 44.44 2.16L44.44 2.16Q44.25 2.81 44.20 3.02L44.20 3.02L44.20 3.07Q44.20 3.14 44.25 3.20Q44.31 3.26 44.38 3.29L44.38 3.29Q44.49 3.35 44.63 3.35L44.63 3.35Q44.86 3.35 45.17 3.21Q45.49 3.08 45.58 2.84L45.58 2.84Q45.67 2.60 45.82 2.00L45.82 2.00L45.82 1.97Q45.82 1.90 45.77 1.83Q45.71 1.75 45.64 1.71L45.64 1.71ZM45.56 4.30L45.09 7.32Q45.01 7.88 44.78 9.35Q44.55 10.81 44.39 12.00L44.39 12.00Q44.35 12.26 44.02 12.45Q43.69 12.64 43.36 12.64L43.36 12.64Q43.13 12.64 43.02 12.55Q42.90 12.46 42.92 12.28L42.92 12.28Q43.16 10.88 43.43 9.08Q43.71 7.28 43.82 6.51L43.82 6.51L44.11 4.59Q44.16 4.34 44.50 4.16Q44.84 3.98 45.16 3.98L45.16 3.98Q45.36 3.98 45.47 4.06Q45.58 4.14 45.56 4.30L45.56 4.30ZM50.95 3.47Q51.02 3.28 51.31 3.13Q51.60 2.98 51.90 2.98L51.90 2.98Q52.32 2.98 52.32 3.28L52.32 3.28Q52.32 3.32 52.29 3.43L52.29 3.43Q51.69 5.47 51.23 6.55L51.23 6.55Q51.14 6.76 50.84 6.91Q50.54 7.06 50.25 7.06L50.25 7.06Q49.90 7.06 49.84 6.82L49.84 6.82Q49.59 5.70 49.06 5.70L49.06 5.70Q48.80 5.70 48.50 5.96L48.50 5.96Q47.82 6.58 47.44 7.63Q47.05 8.68 47.05 9.63L47.05 9.63Q47.05 10.33 47.29 10.88Q47.53 11.44 48.09 11.58L48.09 11.58Q48.17 11.61 48.36 11.61L48.36 11.61Q48.82 11.61 49.27 11.26Q49.73 10.92 50.02 10.55Q50.32 10.18 50.78 9.53L50.78 9.53Q50.89 9.38 51.13 9.29Q51.37 9.20 51.60 9.20L51.60 9.20Q51.83 9.20 51.96 9.28Q52.09 9.35 52.09 9.51L52.09 9.51Q52.09 9.65 52.00 9.80L52.00 9.80Q51.25 10.96 50.19 11.81Q49.13 12.66 47.95 12.66L47.95 12.66Q47.71 12.66 47.47 12.61L47.47 12.61Q46.54 12.46 46.07 11.70Q45.61 10.93 45.61 9.93L45.61 9.93Q45.61 9.56 45.68 9.14L45.68 9.14Q45.91 7.80 46.58 6.63Q47.25 5.46 48.34 4.91L48.34 4.91Q48.89 4.65 49.43 4.65L49.43 4.65Q49.95 4.65 50.39 4.93L50.39 4.93L50.95 3.47ZM56.14 5.07Q55.43 5.61 54.98 6.83L54.98 6.83Q56.35 6.31 57.46 5.96L57.46 5.96Q56.99 5.32 56.52 5.10L56.52 5.10Q56.42 5.05 56.33 5.04Q56.24 5.03 56.22 5.03L56.22 5.03Q56.24 5.04 56.20 5.05Q56.17 5.07 56.14 5.07L56.14 5.07ZM56.20 4.07Q56.42 4.02 56.67 4.02L56.67 4.02Q58.02 4.02 59.11 5.82L59.11 5.82Q59.15 5.88 59.15 5.96L59.15 5.96Q59.15 6.12 58.95 6.29L58.95 6.29Q58.80 6.45 58.56 6.55L58.56 6.55Q57.16 7.17 54.67 8.02L54.67 8.02Q54.53 8.74 54.53 9.49L54.53 9.49Q54.53 9.84 54.54 10.00L54.54 10.00Q54.57 10.63 54.80 11.09L54.80 11.09Q54.87 11.24 55.00 11.38Q55.13 11.52 55.20 11.56L55.20 11.56Q55.24 11.59 55.34 11.59L55.34 11.59Q55.44 11.59 55.57 11.54Q55.71 11.48 55.87 11.38L55.87 11.38Q56.28 11.14 56.63 10.84Q56.98 10.53 57.47 10.04L57.47 10.04Q57.67 9.84 58.13 9.84L58.13 9.84Q58.38 9.84 58.55 9.92Q58.73 10.00 58.73 10.14L58.73 10.14Q58.73 10.26 58.59 10.42L58.59 10.42Q57.72 11.35 56.81 12.01Q55.90 12.67 54.99 12.67L54.99 12.67Q54.56 12.67 54.18 12.49L54.18 12.49Q53.55 12.19 53.27 11.55Q52.99 10.91 52.99 10.04L52.99 10.04Q52.99 9.39 53.16 8.53L53.16 8.53L53.05 8.55L52.93 8.60Q52.72 8.67 52.60 8.67L52.60 8.67Q52.40 8.67 52.29 8.57Q52.18 8.47 52.18 8.32L52.18 8.32Q52.18 8.13 52.33 7.96Q52.47 7.78 52.77 7.67L52.77 7.67L53.45 7.41Q53.58 7.01 53.83 6.38L53.83 6.38Q54.22 5.52 54.81 4.89Q55.40 4.26 56.20 4.07L56.20 4.07Z"></path></g><!----><g data-v-423bf9ae="" id="2eccfd19-c0cc-4d24-96eb-ffb6913f559b" transform="matrix(2.261664468235222,0,0,2.261664468235222,0.26007172382588806,-0.13670425138362674)" stroke="none" fill="#C66A5D"><path d="M29.558 20.994c-1.563-6.086-7.102-10.653-13.798-10.976.248-.256 2.158-2.117 6.23-3.13C26.37 5.796 28.05.455 28.05.455s-5.335-1.172-8.612.794c-3.277 1.967-3.849 7.876-3.849 7.876s-.022-5.697-.704-7.37c-.683-1.673-2.642-.86-2.642 0s.722 1.077 1.197 1.686c.348.447.96 4.449 1.264 6.56C6.556 10.156 0 16.588 0 24.5 0 32.508 6.716 39 15 39l.182-.001a2.502 2.502 0 00-.045-.023c-3.267-1.614-6.281-6.197-6.281-6.197l20.702-11.785zm4.59-2.094c3.867 6.696 1.572 15.258-5.124 19.124C22.328 41.89 13.766 39.596 9.9 32.9l24.249-14zm-.673.389c3.651 6.324 1.485 14.41-4.84 18.062-6.324 3.651-14.41 1.484-18.061-4.84L33.475 19.29zm-11.39 6.576l-.036.042 12.214-2.277a12.424 12.424 0 00-1.461-3.952l-10.717 6.187zm-.122.07l.055-.01-8.08 9.44a12.424 12.424 0 01-2.69-3.243l10.715-6.187zm.048-.027l.005.003-.013.001.008-.004zm10.278 7.033l-10.238-7.02 12.385-.962a12.495 12.495 0 01-2.147 7.982zm-7.971 5.194l-2.275-12.203 9.43 8.071a12.425 12.425 0 01-3.226 2.674 12.425 12.425 0 01-3.93 1.458zm-3.155-10.94l-6.16 8.983a12.495 12.495 0 007.987 2.132l-.843-10.859a1.562 1.562 0 01-.984-.255z"></path></g><!----></svg>